<mxfile host="app.diagrams.net" modified="2023-11-02T20:16:56.835Z" agent="Mozilla/5.0 (Windows NT 10.0; Win64; x64) AppleWebKit/537.36 (KHTML, like Gecko) Chrome/119.0.0.0 Safari/537.36" etag="EnJP0xYXc7kWvKZyanWf" version="22.0.8" type="device">
  <diagram id="R2lEEEUBdFMjLlhIrx00" name="Page-1">
    <mxGraphModel dx="976" dy="570" grid="1" gridSize="10" guides="1" tooltips="1" connect="1" arrows="1" fold="1" page="1" pageScale="1" pageWidth="850" pageHeight="1100" math="0" shadow="0" extFonts="Permanent Marker^https://fonts.googleapis.com/css?family=Permanent+Marker">
      <root>
        <mxCell id="0" />
        <mxCell id="1" parent="0" />
        <mxCell id="v_WMkBbyVysh2Us5pl2Q-217" value="Vendor" style="shape=table;startSize=30;container=1;collapsible=1;childLayout=tableLayout;fixedRows=1;rowLines=0;fontStyle=1;align=center;resizeLast=1;labelBackgroundColor=none;fillColor=#F5AB50;strokeColor=#909090;fontColor=#1A1A1A;" parent="1" vertex="1">
          <mxGeometry x="75" y="700" width="285" height="110" as="geometry" />
        </mxCell>
        <mxCell id="v_WMkBbyVysh2Us5pl2Q-218" value="" style="shape=partialRectangle;collapsible=0;dropTarget=0;pointerEvents=0;fillColor=none;points=[[0,0.5],[1,0.5]];portConstraint=eastwest;top=0;left=0;right=0;bottom=1;labelBackgroundColor=none;strokeColor=#909090;fontColor=#1A1A1A;" parent="v_WMkBbyVysh2Us5pl2Q-217" vertex="1">
          <mxGeometry y="30" width="285" height="30" as="geometry" />
        </mxCell>
        <mxCell id="v_WMkBbyVysh2Us5pl2Q-219" value="PK" style="shape=partialRectangle;overflow=hidden;connectable=0;fillColor=none;top=0;left=0;bottom=0;right=0;fontStyle=1;labelBackgroundColor=none;strokeColor=#909090;fontColor=#1A1A1A;" parent="v_WMkBbyVysh2Us5pl2Q-218" vertex="1">
          <mxGeometry width="30" height="30" as="geometry">
            <mxRectangle width="30" height="30" as="alternateBounds" />
          </mxGeometry>
        </mxCell>
        <mxCell id="v_WMkBbyVysh2Us5pl2Q-220" value="vendor_id int NOT NULL " style="shape=partialRectangle;overflow=hidden;connectable=0;fillColor=none;top=0;left=0;bottom=0;right=0;align=left;spacingLeft=6;fontStyle=5;labelBackgroundColor=none;strokeColor=#909090;fontColor=#1A1A1A;" parent="v_WMkBbyVysh2Us5pl2Q-218" vertex="1">
          <mxGeometry x="30" width="255" height="30" as="geometry">
            <mxRectangle width="255" height="30" as="alternateBounds" />
          </mxGeometry>
        </mxCell>
        <mxCell id="v_WMkBbyVysh2Us5pl2Q-221" value="" style="shape=partialRectangle;collapsible=0;dropTarget=0;pointerEvents=0;fillColor=none;points=[[0,0.5],[1,0.5]];portConstraint=eastwest;top=0;left=0;right=0;bottom=0;labelBackgroundColor=none;strokeColor=#909090;fontColor=#1A1A1A;" parent="v_WMkBbyVysh2Us5pl2Q-217" vertex="1">
          <mxGeometry y="60" width="285" height="30" as="geometry" />
        </mxCell>
        <mxCell id="v_WMkBbyVysh2Us5pl2Q-222" value="" style="shape=partialRectangle;overflow=hidden;connectable=0;fillColor=none;top=0;left=0;bottom=0;right=0;labelBackgroundColor=none;strokeColor=#909090;fontColor=#1A1A1A;" parent="v_WMkBbyVysh2Us5pl2Q-221" vertex="1">
          <mxGeometry width="30" height="30" as="geometry">
            <mxRectangle width="30" height="30" as="alternateBounds" />
          </mxGeometry>
        </mxCell>
        <mxCell id="v_WMkBbyVysh2Us5pl2Q-223" value="vendor_name char(50) NOT NULL" style="shape=partialRectangle;overflow=hidden;connectable=0;fillColor=none;top=0;left=0;bottom=0;right=0;align=left;spacingLeft=6;labelBackgroundColor=none;strokeColor=#909090;fontColor=#1A1A1A;" parent="v_WMkBbyVysh2Us5pl2Q-221" vertex="1">
          <mxGeometry x="30" width="255" height="30" as="geometry">
            <mxRectangle width="255" height="30" as="alternateBounds" />
          </mxGeometry>
        </mxCell>
        <mxCell id="CCjtgsCmNxGvaccd5GqG-76" style="shape=partialRectangle;collapsible=0;dropTarget=0;pointerEvents=0;fillColor=none;points=[[0,0.5],[1,0.5]];portConstraint=eastwest;top=0;left=0;right=0;bottom=0;labelBackgroundColor=none;strokeColor=#909090;fontColor=#1A1A1A;" parent="v_WMkBbyVysh2Us5pl2Q-217" vertex="1">
          <mxGeometry y="90" width="285" height="20" as="geometry" />
        </mxCell>
        <mxCell id="CCjtgsCmNxGvaccd5GqG-77" style="shape=partialRectangle;overflow=hidden;connectable=0;fillColor=none;top=0;left=0;bottom=0;right=0;labelBackgroundColor=none;strokeColor=#909090;fontColor=#1A1A1A;" parent="CCjtgsCmNxGvaccd5GqG-76" vertex="1">
          <mxGeometry width="30" height="20" as="geometry">
            <mxRectangle width="30" height="20" as="alternateBounds" />
          </mxGeometry>
        </mxCell>
        <mxCell id="CCjtgsCmNxGvaccd5GqG-78" style="shape=partialRectangle;overflow=hidden;connectable=0;fillColor=none;top=0;left=0;bottom=0;right=0;align=left;spacingLeft=6;labelBackgroundColor=none;strokeColor=#909090;fontColor=#1A1A1A;" parent="CCjtgsCmNxGvaccd5GqG-76" vertex="1">
          <mxGeometry x="30" width="255" height="20" as="geometry">
            <mxRectangle width="255" height="20" as="alternateBounds" />
          </mxGeometry>
        </mxCell>
        <mxCell id="v_WMkBbyVysh2Us5pl2Q-225" value="VendorShippers" style="shape=table;startSize=30;container=1;collapsible=1;childLayout=tableLayout;fixedRows=1;rowLines=0;fontStyle=1;align=center;resizeLast=1;html=1;labelBackgroundColor=none;fillColor=#F5AB50;strokeColor=#909090;fontColor=#1A1A1A;" parent="1" vertex="1">
          <mxGeometry x="510" y="740" width="180" height="120" as="geometry" />
        </mxCell>
        <mxCell id="v_WMkBbyVysh2Us5pl2Q-226" value="" style="shape=tableRow;horizontal=0;startSize=0;swimlaneHead=0;swimlaneBody=0;fillColor=none;collapsible=0;dropTarget=0;points=[[0,0.5],[1,0.5]];portConstraint=eastwest;top=0;left=0;right=0;bottom=1;labelBackgroundColor=none;strokeColor=#909090;fontColor=#1A1A1A;" parent="v_WMkBbyVysh2Us5pl2Q-225" vertex="1">
          <mxGeometry y="30" width="180" height="30" as="geometry" />
        </mxCell>
        <mxCell id="v_WMkBbyVysh2Us5pl2Q-227" value="PK" style="shape=partialRectangle;connectable=0;fillColor=none;top=0;left=0;bottom=0;right=0;fontStyle=1;overflow=hidden;whiteSpace=wrap;html=1;labelBackgroundColor=none;strokeColor=#909090;fontColor=#1A1A1A;" parent="v_WMkBbyVysh2Us5pl2Q-226" vertex="1">
          <mxGeometry width="30" height="30" as="geometry">
            <mxRectangle width="30" height="30" as="alternateBounds" />
          </mxGeometry>
        </mxCell>
        <mxCell id="v_WMkBbyVysh2Us5pl2Q-228" value="uniqueID&amp;nbsp;int NOT NULL" style="shape=partialRectangle;connectable=0;fillColor=none;top=0;left=0;bottom=0;right=0;align=left;spacingLeft=6;fontStyle=5;overflow=hidden;whiteSpace=wrap;html=1;labelBackgroundColor=none;strokeColor=#909090;fontColor=#1A1A1A;" parent="v_WMkBbyVysh2Us5pl2Q-226" vertex="1">
          <mxGeometry x="30" width="150" height="30" as="geometry">
            <mxRectangle width="150" height="30" as="alternateBounds" />
          </mxGeometry>
        </mxCell>
        <mxCell id="v_WMkBbyVysh2Us5pl2Q-232" value="" style="shape=tableRow;horizontal=0;startSize=0;swimlaneHead=0;swimlaneBody=0;fillColor=none;collapsible=0;dropTarget=0;points=[[0,0.5],[1,0.5]];portConstraint=eastwest;top=0;left=0;right=0;bottom=0;labelBackgroundColor=none;strokeColor=#909090;fontColor=#1A1A1A;" parent="v_WMkBbyVysh2Us5pl2Q-225" vertex="1">
          <mxGeometry y="60" width="180" height="30" as="geometry" />
        </mxCell>
        <mxCell id="v_WMkBbyVysh2Us5pl2Q-233" value="FK" style="shape=partialRectangle;connectable=0;fillColor=none;top=0;left=0;bottom=0;right=0;editable=1;overflow=hidden;whiteSpace=wrap;html=1;labelBackgroundColor=none;strokeColor=#909090;fontColor=#1A1A1A;" parent="v_WMkBbyVysh2Us5pl2Q-232" vertex="1">
          <mxGeometry width="30" height="30" as="geometry">
            <mxRectangle width="30" height="30" as="alternateBounds" />
          </mxGeometry>
        </mxCell>
        <mxCell id="v_WMkBbyVysh2Us5pl2Q-234" value="vendorID&amp;nbsp;int NOT NULL" style="shape=partialRectangle;connectable=0;fillColor=none;top=0;left=0;bottom=0;right=0;align=left;spacingLeft=6;overflow=hidden;whiteSpace=wrap;html=1;labelBackgroundColor=none;strokeColor=#909090;fontColor=#1A1A1A;" parent="v_WMkBbyVysh2Us5pl2Q-232" vertex="1">
          <mxGeometry x="30" width="150" height="30" as="geometry">
            <mxRectangle width="150" height="30" as="alternateBounds" />
          </mxGeometry>
        </mxCell>
        <mxCell id="CCjtgsCmNxGvaccd5GqG-94" style="shape=tableRow;horizontal=0;startSize=0;swimlaneHead=0;swimlaneBody=0;fillColor=none;collapsible=0;dropTarget=0;points=[[0,0.5],[1,0.5]];portConstraint=eastwest;top=0;left=0;right=0;bottom=0;labelBackgroundColor=none;strokeColor=#909090;fontColor=#1A1A1A;" parent="v_WMkBbyVysh2Us5pl2Q-225" vertex="1">
          <mxGeometry y="90" width="180" height="30" as="geometry" />
        </mxCell>
        <mxCell id="CCjtgsCmNxGvaccd5GqG-95" value="FK" style="shape=partialRectangle;connectable=0;fillColor=none;top=0;left=0;bottom=0;right=0;editable=1;overflow=hidden;whiteSpace=wrap;html=1;labelBackgroundColor=none;strokeColor=#909090;fontColor=#1A1A1A;" parent="CCjtgsCmNxGvaccd5GqG-94" vertex="1">
          <mxGeometry width="30" height="30" as="geometry">
            <mxRectangle width="30" height="30" as="alternateBounds" />
          </mxGeometry>
        </mxCell>
        <mxCell id="CCjtgsCmNxGvaccd5GqG-96" value="shipperID&amp;nbsp;int NOT NULL" style="shape=partialRectangle;connectable=0;fillColor=none;top=0;left=0;bottom=0;right=0;align=left;spacingLeft=6;overflow=hidden;whiteSpace=wrap;html=1;labelBackgroundColor=none;strokeColor=#909090;fontColor=#1A1A1A;" parent="CCjtgsCmNxGvaccd5GqG-94" vertex="1">
          <mxGeometry x="30" width="150" height="30" as="geometry">
            <mxRectangle width="150" height="30" as="alternateBounds" />
          </mxGeometry>
        </mxCell>
        <mxCell id="v_WMkBbyVysh2Us5pl2Q-243" value="ShippersDetail" style="shape=table;startSize=30;container=1;collapsible=1;childLayout=tableLayout;fixedRows=1;rowLines=0;fontStyle=1;align=center;resizeLast=1;html=1;labelBackgroundColor=none;fillColor=#F5AB50;strokeColor=#909090;fontColor=#1A1A1A;" parent="1" vertex="1">
          <mxGeometry x="1061" y="720" width="235" height="150" as="geometry" />
        </mxCell>
        <mxCell id="v_WMkBbyVysh2Us5pl2Q-244" value="" style="shape=tableRow;horizontal=0;startSize=0;swimlaneHead=0;swimlaneBody=0;fillColor=none;collapsible=0;dropTarget=0;points=[[0,0.5],[1,0.5]];portConstraint=eastwest;top=0;left=0;right=0;bottom=1;labelBackgroundColor=none;strokeColor=#909090;fontColor=#1A1A1A;" parent="v_WMkBbyVysh2Us5pl2Q-243" vertex="1">
          <mxGeometry y="30" width="235" height="30" as="geometry" />
        </mxCell>
        <mxCell id="v_WMkBbyVysh2Us5pl2Q-245" value="PK" style="shape=partialRectangle;connectable=0;fillColor=none;top=0;left=0;bottom=0;right=0;fontStyle=1;overflow=hidden;whiteSpace=wrap;html=1;labelBackgroundColor=none;strokeColor=#909090;fontColor=#1A1A1A;" parent="v_WMkBbyVysh2Us5pl2Q-244" vertex="1">
          <mxGeometry width="30" height="30" as="geometry">
            <mxRectangle width="30" height="30" as="alternateBounds" />
          </mxGeometry>
        </mxCell>
        <mxCell id="v_WMkBbyVysh2Us5pl2Q-246" value="shippersDetailID,int NOT NULL" style="shape=partialRectangle;connectable=0;fillColor=none;top=0;left=0;bottom=0;right=0;align=left;spacingLeft=6;fontStyle=5;overflow=hidden;whiteSpace=wrap;html=1;labelBackgroundColor=none;strokeColor=#909090;fontColor=#1A1A1A;" parent="v_WMkBbyVysh2Us5pl2Q-244" vertex="1">
          <mxGeometry x="30" width="205" height="30" as="geometry">
            <mxRectangle width="205" height="30" as="alternateBounds" />
          </mxGeometry>
        </mxCell>
        <mxCell id="v_WMkBbyVysh2Us5pl2Q-247" value="" style="shape=tableRow;horizontal=0;startSize=0;swimlaneHead=0;swimlaneBody=0;fillColor=none;collapsible=0;dropTarget=0;points=[[0,0.5],[1,0.5]];portConstraint=eastwest;top=0;left=0;right=0;bottom=0;labelBackgroundColor=none;strokeColor=#909090;fontColor=#1A1A1A;" parent="v_WMkBbyVysh2Us5pl2Q-243" vertex="1">
          <mxGeometry y="60" width="235" height="30" as="geometry" />
        </mxCell>
        <mxCell id="v_WMkBbyVysh2Us5pl2Q-248" value="FK" style="shape=partialRectangle;connectable=0;fillColor=none;top=0;left=0;bottom=0;right=0;editable=1;overflow=hidden;whiteSpace=wrap;html=1;labelBackgroundColor=none;strokeColor=#909090;fontColor=#1A1A1A;" parent="v_WMkBbyVysh2Us5pl2Q-247" vertex="1">
          <mxGeometry width="30" height="30" as="geometry">
            <mxRectangle width="30" height="30" as="alternateBounds" />
          </mxGeometry>
        </mxCell>
        <mxCell id="v_WMkBbyVysh2Us5pl2Q-249" value="shipperID&amp;nbsp;int NOT NULL" style="shape=partialRectangle;connectable=0;fillColor=none;top=0;left=0;bottom=0;right=0;align=left;spacingLeft=6;overflow=hidden;whiteSpace=wrap;html=1;labelBackgroundColor=none;strokeColor=#909090;fontColor=#1A1A1A;" parent="v_WMkBbyVysh2Us5pl2Q-247" vertex="1">
          <mxGeometry x="30" width="205" height="30" as="geometry">
            <mxRectangle width="205" height="30" as="alternateBounds" />
          </mxGeometry>
        </mxCell>
        <mxCell id="v_WMkBbyVysh2Us5pl2Q-253" value="" style="shape=tableRow;horizontal=0;startSize=0;swimlaneHead=0;swimlaneBody=0;fillColor=none;collapsible=0;dropTarget=0;points=[[0,0.5],[1,0.5]];portConstraint=eastwest;top=0;left=0;right=0;bottom=0;labelBackgroundColor=none;strokeColor=#909090;fontColor=#1A1A1A;" parent="v_WMkBbyVysh2Us5pl2Q-243" vertex="1">
          <mxGeometry y="90" width="235" height="30" as="geometry" />
        </mxCell>
        <mxCell id="v_WMkBbyVysh2Us5pl2Q-254" value="" style="shape=partialRectangle;connectable=0;fillColor=none;top=0;left=0;bottom=0;right=0;editable=1;overflow=hidden;whiteSpace=wrap;html=1;labelBackgroundColor=none;strokeColor=#909090;fontColor=#1A1A1A;" parent="v_WMkBbyVysh2Us5pl2Q-253" vertex="1">
          <mxGeometry width="30" height="30" as="geometry">
            <mxRectangle width="30" height="30" as="alternateBounds" />
          </mxGeometry>
        </mxCell>
        <mxCell id="v_WMkBbyVysh2Us5pl2Q-255" value="Address nvarchar(150)&amp;nbsp;" style="shape=partialRectangle;connectable=0;fillColor=none;top=0;left=0;bottom=0;right=0;align=left;spacingLeft=6;overflow=hidden;whiteSpace=wrap;html=1;labelBackgroundColor=none;strokeColor=#909090;fontColor=#1A1A1A;" parent="v_WMkBbyVysh2Us5pl2Q-253" vertex="1">
          <mxGeometry x="30" width="205" height="30" as="geometry">
            <mxRectangle width="205" height="30" as="alternateBounds" />
          </mxGeometry>
        </mxCell>
        <mxCell id="CCjtgsCmNxGvaccd5GqG-72" style="shape=tableRow;horizontal=0;startSize=0;swimlaneHead=0;swimlaneBody=0;fillColor=none;collapsible=0;dropTarget=0;points=[[0,0.5],[1,0.5]];portConstraint=eastwest;top=0;left=0;right=0;bottom=0;labelBackgroundColor=none;strokeColor=#909090;fontColor=#1A1A1A;" parent="v_WMkBbyVysh2Us5pl2Q-243" vertex="1">
          <mxGeometry y="120" width="235" height="30" as="geometry" />
        </mxCell>
        <mxCell id="CCjtgsCmNxGvaccd5GqG-73" style="shape=partialRectangle;connectable=0;fillColor=none;top=0;left=0;bottom=0;right=0;editable=1;overflow=hidden;whiteSpace=wrap;html=1;labelBackgroundColor=none;strokeColor=#909090;fontColor=#1A1A1A;" parent="CCjtgsCmNxGvaccd5GqG-72" vertex="1">
          <mxGeometry width="30" height="30" as="geometry">
            <mxRectangle width="30" height="30" as="alternateBounds" />
          </mxGeometry>
        </mxCell>
        <mxCell id="CCjtgsCmNxGvaccd5GqG-74" value="telno" style="shape=partialRectangle;connectable=0;fillColor=none;top=0;left=0;bottom=0;right=0;align=left;spacingLeft=6;overflow=hidden;whiteSpace=wrap;html=1;labelBackgroundColor=none;strokeColor=#909090;fontColor=#1A1A1A;" parent="CCjtgsCmNxGvaccd5GqG-72" vertex="1">
          <mxGeometry x="30" width="205" height="30" as="geometry">
            <mxRectangle width="205" height="30" as="alternateBounds" />
          </mxGeometry>
        </mxCell>
        <mxCell id="v_WMkBbyVysh2Us5pl2Q-267" value="Orders" style="shape=table;startSize=30;container=1;collapsible=1;childLayout=tableLayout;fixedRows=1;rowLines=0;fontStyle=1;align=center;resizeLast=1;labelBackgroundColor=none;fillColor=#F5AB50;strokeColor=#909090;fontColor=#1A1A1A;" parent="1" vertex="1">
          <mxGeometry x="330" y="245" width="207" height="290" as="geometry" />
        </mxCell>
        <mxCell id="v_WMkBbyVysh2Us5pl2Q-268" value="" style="shape=partialRectangle;collapsible=0;dropTarget=0;pointerEvents=0;fillColor=none;points=[[0,0.5],[1,0.5]];portConstraint=eastwest;top=0;left=0;right=0;bottom=1;labelBackgroundColor=none;strokeColor=#909090;fontColor=#1A1A1A;" parent="v_WMkBbyVysh2Us5pl2Q-267" vertex="1">
          <mxGeometry y="30" width="207" height="30" as="geometry" />
        </mxCell>
        <mxCell id="v_WMkBbyVysh2Us5pl2Q-269" value="PK" style="shape=partialRectangle;overflow=hidden;connectable=0;fillColor=none;top=0;left=0;bottom=0;right=0;fontStyle=1;labelBackgroundColor=none;strokeColor=#909090;fontColor=#1A1A1A;" parent="v_WMkBbyVysh2Us5pl2Q-268" vertex="1">
          <mxGeometry width="30" height="30" as="geometry">
            <mxRectangle width="30" height="30" as="alternateBounds" />
          </mxGeometry>
        </mxCell>
        <mxCell id="v_WMkBbyVysh2Us5pl2Q-270" value="order_id int NOT NULL " style="shape=partialRectangle;overflow=hidden;connectable=0;fillColor=none;top=0;left=0;bottom=0;right=0;align=left;spacingLeft=6;fontStyle=5;labelBackgroundColor=none;strokeColor=#909090;fontColor=#1A1A1A;" parent="v_WMkBbyVysh2Us5pl2Q-268" vertex="1">
          <mxGeometry x="30" width="177" height="30" as="geometry">
            <mxRectangle width="177" height="30" as="alternateBounds" />
          </mxGeometry>
        </mxCell>
        <mxCell id="v_WMkBbyVysh2Us5pl2Q-271" value="" style="shape=partialRectangle;collapsible=0;dropTarget=0;pointerEvents=0;fillColor=none;points=[[0,0.5],[1,0.5]];portConstraint=eastwest;top=0;left=0;right=0;bottom=0;labelBackgroundColor=none;strokeColor=#909090;fontColor=#1A1A1A;" parent="v_WMkBbyVysh2Us5pl2Q-267" vertex="1">
          <mxGeometry y="60" width="207" height="30" as="geometry" />
        </mxCell>
        <mxCell id="v_WMkBbyVysh2Us5pl2Q-272" value="FK" style="shape=partialRectangle;overflow=hidden;connectable=0;fillColor=none;top=0;left=0;bottom=0;right=0;labelBackgroundColor=none;strokeColor=#909090;fontColor=#1A1A1A;" parent="v_WMkBbyVysh2Us5pl2Q-271" vertex="1">
          <mxGeometry width="30" height="30" as="geometry">
            <mxRectangle width="30" height="30" as="alternateBounds" />
          </mxGeometry>
        </mxCell>
        <mxCell id="v_WMkBbyVysh2Us5pl2Q-273" value="customer_id int NOT NULL" style="shape=partialRectangle;overflow=hidden;connectable=0;fillColor=none;top=0;left=0;bottom=0;right=0;align=left;spacingLeft=6;labelBackgroundColor=none;strokeColor=#909090;fontColor=#1A1A1A;" parent="v_WMkBbyVysh2Us5pl2Q-271" vertex="1">
          <mxGeometry x="30" width="177" height="30" as="geometry">
            <mxRectangle width="177" height="30" as="alternateBounds" />
          </mxGeometry>
        </mxCell>
        <mxCell id="CCjtgsCmNxGvaccd5GqG-10" style="shape=partialRectangle;collapsible=0;dropTarget=0;pointerEvents=0;fillColor=none;points=[[0,0.5],[1,0.5]];portConstraint=eastwest;top=0;left=0;right=0;bottom=0;labelBackgroundColor=none;strokeColor=#909090;fontColor=#1A1A1A;" parent="v_WMkBbyVysh2Us5pl2Q-267" vertex="1">
          <mxGeometry y="90" width="207" height="30" as="geometry" />
        </mxCell>
        <mxCell id="CCjtgsCmNxGvaccd5GqG-11" value="FK" style="shape=partialRectangle;overflow=hidden;connectable=0;fillColor=none;top=0;left=0;bottom=0;right=0;labelBackgroundColor=none;strokeColor=#909090;fontColor=#1A1A1A;" parent="CCjtgsCmNxGvaccd5GqG-10" vertex="1">
          <mxGeometry width="30" height="30" as="geometry">
            <mxRectangle width="30" height="30" as="alternateBounds" />
          </mxGeometry>
        </mxCell>
        <mxCell id="CCjtgsCmNxGvaccd5GqG-12" value="paymentID int NOT NULL" style="shape=partialRectangle;overflow=hidden;connectable=0;fillColor=none;top=0;left=0;bottom=0;right=0;align=left;spacingLeft=6;labelBackgroundColor=none;strokeColor=#909090;fontColor=#1A1A1A;" parent="CCjtgsCmNxGvaccd5GqG-10" vertex="1">
          <mxGeometry x="30" width="177" height="30" as="geometry">
            <mxRectangle width="177" height="30" as="alternateBounds" />
          </mxGeometry>
        </mxCell>
        <mxCell id="CCjtgsCmNxGvaccd5GqG-13" style="shape=partialRectangle;collapsible=0;dropTarget=0;pointerEvents=0;fillColor=none;points=[[0,0.5],[1,0.5]];portConstraint=eastwest;top=0;left=0;right=0;bottom=0;labelBackgroundColor=none;strokeColor=#909090;fontColor=#1A1A1A;" parent="v_WMkBbyVysh2Us5pl2Q-267" vertex="1">
          <mxGeometry y="120" width="207" height="30" as="geometry" />
        </mxCell>
        <mxCell id="CCjtgsCmNxGvaccd5GqG-14" value="FK" style="shape=partialRectangle;overflow=hidden;connectable=0;fillColor=none;top=0;left=0;bottom=0;right=0;labelBackgroundColor=none;strokeColor=#909090;fontColor=#1A1A1A;" parent="CCjtgsCmNxGvaccd5GqG-13" vertex="1">
          <mxGeometry width="30" height="30" as="geometry">
            <mxRectangle width="30" height="30" as="alternateBounds" />
          </mxGeometry>
        </mxCell>
        <mxCell id="CCjtgsCmNxGvaccd5GqG-15" value="addressID int NOT NULL" style="shape=partialRectangle;overflow=hidden;connectable=0;fillColor=none;top=0;left=0;bottom=0;right=0;align=left;spacingLeft=6;labelBackgroundColor=none;strokeColor=#909090;fontColor=#1A1A1A;" parent="CCjtgsCmNxGvaccd5GqG-13" vertex="1">
          <mxGeometry x="30" width="177" height="30" as="geometry">
            <mxRectangle width="177" height="30" as="alternateBounds" />
          </mxGeometry>
        </mxCell>
        <mxCell id="CCjtgsCmNxGvaccd5GqG-16" style="shape=partialRectangle;collapsible=0;dropTarget=0;pointerEvents=0;fillColor=none;points=[[0,0.5],[1,0.5]];portConstraint=eastwest;top=0;left=0;right=0;bottom=0;labelBackgroundColor=none;strokeColor=#909090;fontColor=#1A1A1A;" parent="v_WMkBbyVysh2Us5pl2Q-267" vertex="1">
          <mxGeometry y="150" width="207" height="30" as="geometry" />
        </mxCell>
        <mxCell id="CCjtgsCmNxGvaccd5GqG-17" style="shape=partialRectangle;overflow=hidden;connectable=0;fillColor=none;top=0;left=0;bottom=0;right=0;labelBackgroundColor=none;strokeColor=#909090;fontColor=#1A1A1A;" parent="CCjtgsCmNxGvaccd5GqG-16" vertex="1">
          <mxGeometry width="30" height="30" as="geometry">
            <mxRectangle width="30" height="30" as="alternateBounds" />
          </mxGeometry>
        </mxCell>
        <mxCell id="CCjtgsCmNxGvaccd5GqG-18" value="orderDate date" style="shape=partialRectangle;overflow=hidden;connectable=0;fillColor=none;top=0;left=0;bottom=0;right=0;align=left;spacingLeft=6;labelBackgroundColor=none;strokeColor=#909090;fontColor=#1A1A1A;" parent="CCjtgsCmNxGvaccd5GqG-16" vertex="1">
          <mxGeometry x="30" width="177" height="30" as="geometry">
            <mxRectangle width="177" height="30" as="alternateBounds" />
          </mxGeometry>
        </mxCell>
        <mxCell id="CCjtgsCmNxGvaccd5GqG-137" style="shape=partialRectangle;collapsible=0;dropTarget=0;pointerEvents=0;fillColor=none;points=[[0,0.5],[1,0.5]];portConstraint=eastwest;top=0;left=0;right=0;bottom=0;labelBackgroundColor=none;strokeColor=#909090;fontColor=#1A1A1A;" parent="v_WMkBbyVysh2Us5pl2Q-267" vertex="1">
          <mxGeometry y="180" width="207" height="35" as="geometry" />
        </mxCell>
        <mxCell id="CCjtgsCmNxGvaccd5GqG-138" value="FK" style="shape=partialRectangle;overflow=hidden;connectable=0;fillColor=none;top=0;left=0;bottom=0;right=0;labelBackgroundColor=none;strokeColor=#909090;fontColor=#1A1A1A;" parent="CCjtgsCmNxGvaccd5GqG-137" vertex="1">
          <mxGeometry width="30" height="35" as="geometry">
            <mxRectangle width="30" height="35" as="alternateBounds" />
          </mxGeometry>
        </mxCell>
        <mxCell id="CCjtgsCmNxGvaccd5GqG-139" value="vendorID int NOT NULL" style="shape=partialRectangle;overflow=hidden;connectable=0;fillColor=none;top=0;left=0;bottom=0;right=0;align=left;spacingLeft=6;labelBackgroundColor=none;strokeColor=#909090;fontColor=#1A1A1A;" parent="CCjtgsCmNxGvaccd5GqG-137" vertex="1">
          <mxGeometry x="30" width="177" height="35" as="geometry">
            <mxRectangle width="177" height="35" as="alternateBounds" />
          </mxGeometry>
        </mxCell>
        <mxCell id="CCjtgsCmNxGvaccd5GqG-141" style="shape=partialRectangle;collapsible=0;dropTarget=0;pointerEvents=0;fillColor=none;points=[[0,0.5],[1,0.5]];portConstraint=eastwest;top=0;left=0;right=0;bottom=0;labelBackgroundColor=none;strokeColor=#909090;fontColor=#1A1A1A;" parent="v_WMkBbyVysh2Us5pl2Q-267" vertex="1">
          <mxGeometry y="215" width="207" height="35" as="geometry" />
        </mxCell>
        <mxCell id="CCjtgsCmNxGvaccd5GqG-142" value="FK" style="shape=partialRectangle;overflow=hidden;connectable=0;fillColor=none;top=0;left=0;bottom=0;right=0;labelBackgroundColor=none;strokeColor=#909090;fontColor=#1A1A1A;" parent="CCjtgsCmNxGvaccd5GqG-141" vertex="1">
          <mxGeometry width="30" height="35" as="geometry">
            <mxRectangle width="30" height="35" as="alternateBounds" />
          </mxGeometry>
        </mxCell>
        <mxCell id="CCjtgsCmNxGvaccd5GqG-143" value="shipperID int NOT NULL" style="shape=partialRectangle;overflow=hidden;connectable=0;fillColor=none;top=0;left=0;bottom=0;right=0;align=left;spacingLeft=6;labelBackgroundColor=none;strokeColor=#909090;fontColor=#1A1A1A;" parent="CCjtgsCmNxGvaccd5GqG-141" vertex="1">
          <mxGeometry x="30" width="177" height="35" as="geometry">
            <mxRectangle width="177" height="35" as="alternateBounds" />
          </mxGeometry>
        </mxCell>
        <mxCell id="v_WMkBbyVysh2Us5pl2Q-277" value="OrderProduct" style="shape=table;startSize=30;container=1;collapsible=1;childLayout=tableLayout;fixedRows=1;rowLines=0;fontStyle=1;align=center;resizeLast=1;labelBackgroundColor=none;fillColor=#F5AB50;strokeColor=#909090;fontColor=#1A1A1A;" parent="1" vertex="1">
          <mxGeometry x="700" y="260" width="210" height="220" as="geometry" />
        </mxCell>
        <mxCell id="v_WMkBbyVysh2Us5pl2Q-278" value="" style="shape=partialRectangle;collapsible=0;dropTarget=0;pointerEvents=0;fillColor=none;points=[[0,0.5],[1,0.5]];portConstraint=eastwest;top=0;left=0;right=0;bottom=1;labelBackgroundColor=none;strokeColor=#909090;fontColor=#1A1A1A;" parent="v_WMkBbyVysh2Us5pl2Q-277" vertex="1">
          <mxGeometry y="30" width="210" height="30" as="geometry" />
        </mxCell>
        <mxCell id="v_WMkBbyVysh2Us5pl2Q-279" value="PK" style="shape=partialRectangle;overflow=hidden;connectable=0;fillColor=none;top=0;left=0;bottom=0;right=0;fontStyle=1;labelBackgroundColor=none;strokeColor=#909090;fontColor=#1A1A1A;" parent="v_WMkBbyVysh2Us5pl2Q-278" vertex="1">
          <mxGeometry width="30" height="30" as="geometry">
            <mxRectangle width="30" height="30" as="alternateBounds" />
          </mxGeometry>
        </mxCell>
        <mxCell id="v_WMkBbyVysh2Us5pl2Q-280" value="unique_id int NOT NULL " style="shape=partialRectangle;overflow=hidden;connectable=0;fillColor=none;top=0;left=0;bottom=0;right=0;align=left;spacingLeft=6;fontStyle=5;labelBackgroundColor=none;strokeColor=#909090;fontColor=#1A1A1A;" parent="v_WMkBbyVysh2Us5pl2Q-278" vertex="1">
          <mxGeometry x="30" width="180" height="30" as="geometry">
            <mxRectangle width="180" height="30" as="alternateBounds" />
          </mxGeometry>
        </mxCell>
        <mxCell id="CCjtgsCmNxGvaccd5GqG-122" style="shape=partialRectangle;collapsible=0;dropTarget=0;pointerEvents=0;fillColor=none;points=[[0,0.5],[1,0.5]];portConstraint=eastwest;top=0;left=0;right=0;bottom=0;labelBackgroundColor=none;strokeColor=#909090;fontColor=#1A1A1A;" parent="v_WMkBbyVysh2Us5pl2Q-277" vertex="1">
          <mxGeometry y="60" width="210" height="30" as="geometry" />
        </mxCell>
        <mxCell id="CCjtgsCmNxGvaccd5GqG-123" value="FK" style="shape=partialRectangle;overflow=hidden;connectable=0;fillColor=none;top=0;left=0;bottom=0;right=0;labelBackgroundColor=none;strokeColor=#909090;fontColor=#1A1A1A;" parent="CCjtgsCmNxGvaccd5GqG-122" vertex="1">
          <mxGeometry width="30" height="30" as="geometry">
            <mxRectangle width="30" height="30" as="alternateBounds" />
          </mxGeometry>
        </mxCell>
        <mxCell id="CCjtgsCmNxGvaccd5GqG-124" value="product_ID int NOT NULL" style="shape=partialRectangle;overflow=hidden;connectable=0;fillColor=none;top=0;left=0;bottom=0;right=0;align=left;spacingLeft=6;labelBackgroundColor=none;strokeColor=#909090;fontColor=#1A1A1A;" parent="CCjtgsCmNxGvaccd5GqG-122" vertex="1">
          <mxGeometry x="30" width="180" height="30" as="geometry">
            <mxRectangle width="180" height="30" as="alternateBounds" />
          </mxGeometry>
        </mxCell>
        <mxCell id="v_WMkBbyVysh2Us5pl2Q-288" style="shape=partialRectangle;collapsible=0;dropTarget=0;pointerEvents=0;fillColor=none;points=[[0,0.5],[1,0.5]];portConstraint=eastwest;top=0;left=0;right=0;bottom=0;labelBackgroundColor=none;strokeColor=#909090;fontColor=#1A1A1A;" parent="v_WMkBbyVysh2Us5pl2Q-277" vertex="1">
          <mxGeometry y="90" width="210" height="30" as="geometry" />
        </mxCell>
        <mxCell id="v_WMkBbyVysh2Us5pl2Q-289" value="FK" style="shape=partialRectangle;overflow=hidden;connectable=0;fillColor=none;top=0;left=0;bottom=0;right=0;labelBackgroundColor=none;strokeColor=#909090;fontColor=#1A1A1A;" parent="v_WMkBbyVysh2Us5pl2Q-288" vertex="1">
          <mxGeometry width="30" height="30" as="geometry">
            <mxRectangle width="30" height="30" as="alternateBounds" />
          </mxGeometry>
        </mxCell>
        <mxCell id="v_WMkBbyVysh2Us5pl2Q-290" value="order_ID int NOT NULL" style="shape=partialRectangle;overflow=hidden;connectable=0;fillColor=none;top=0;left=0;bottom=0;right=0;align=left;spacingLeft=6;labelBackgroundColor=none;strokeColor=#909090;fontColor=#1A1A1A;" parent="v_WMkBbyVysh2Us5pl2Q-288" vertex="1">
          <mxGeometry x="30" width="180" height="30" as="geometry">
            <mxRectangle width="180" height="30" as="alternateBounds" />
          </mxGeometry>
        </mxCell>
        <mxCell id="CCjtgsCmNxGvaccd5GqG-57" style="shape=partialRectangle;collapsible=0;dropTarget=0;pointerEvents=0;fillColor=none;points=[[0,0.5],[1,0.5]];portConstraint=eastwest;top=0;left=0;right=0;bottom=0;labelBackgroundColor=none;strokeColor=#909090;fontColor=#1A1A1A;" parent="v_WMkBbyVysh2Us5pl2Q-277" vertex="1">
          <mxGeometry y="120" width="210" height="30" as="geometry" />
        </mxCell>
        <mxCell id="CCjtgsCmNxGvaccd5GqG-58" style="shape=partialRectangle;overflow=hidden;connectable=0;fillColor=none;top=0;left=0;bottom=0;right=0;labelBackgroundColor=none;strokeColor=#909090;fontColor=#1A1A1A;" parent="CCjtgsCmNxGvaccd5GqG-57" vertex="1">
          <mxGeometry width="30" height="30" as="geometry">
            <mxRectangle width="30" height="30" as="alternateBounds" />
          </mxGeometry>
        </mxCell>
        <mxCell id="CCjtgsCmNxGvaccd5GqG-59" value="quantity int" style="shape=partialRectangle;overflow=hidden;connectable=0;fillColor=none;top=0;left=0;bottom=0;right=0;align=left;spacingLeft=6;labelBackgroundColor=none;strokeColor=#909090;fontColor=#1A1A1A;" parent="CCjtgsCmNxGvaccd5GqG-57" vertex="1">
          <mxGeometry x="30" width="180" height="30" as="geometry">
            <mxRectangle width="180" height="30" as="alternateBounds" />
          </mxGeometry>
        </mxCell>
        <mxCell id="CCjtgsCmNxGvaccd5GqG-63" style="shape=partialRectangle;collapsible=0;dropTarget=0;pointerEvents=0;fillColor=none;points=[[0,0.5],[1,0.5]];portConstraint=eastwest;top=0;left=0;right=0;bottom=0;labelBackgroundColor=none;strokeColor=#909090;fontColor=#1A1A1A;" parent="v_WMkBbyVysh2Us5pl2Q-277" vertex="1">
          <mxGeometry y="150" width="210" height="30" as="geometry" />
        </mxCell>
        <mxCell id="CCjtgsCmNxGvaccd5GqG-64" style="shape=partialRectangle;overflow=hidden;connectable=0;fillColor=none;top=0;left=0;bottom=0;right=0;labelBackgroundColor=none;strokeColor=#909090;fontColor=#1A1A1A;" parent="CCjtgsCmNxGvaccd5GqG-63" vertex="1">
          <mxGeometry width="30" height="30" as="geometry">
            <mxRectangle width="30" height="30" as="alternateBounds" />
          </mxGeometry>
        </mxCell>
        <mxCell id="CCjtgsCmNxGvaccd5GqG-65" value="TotalPrice money" style="shape=partialRectangle;overflow=hidden;connectable=0;fillColor=none;top=0;left=0;bottom=0;right=0;align=left;spacingLeft=6;labelBackgroundColor=none;strokeColor=#909090;fontColor=#1A1A1A;" parent="CCjtgsCmNxGvaccd5GqG-63" vertex="1">
          <mxGeometry x="30" width="180" height="30" as="geometry">
            <mxRectangle width="180" height="30" as="alternateBounds" />
          </mxGeometry>
        </mxCell>
        <mxCell id="v_WMkBbyVysh2Us5pl2Q-306" value="" style="edgeStyle=entityRelationEdgeStyle;fontSize=12;html=1;endArrow=ERmany;rounded=0;exitX=1;exitY=0.5;exitDx=0;exitDy=0;entryX=0;entryY=0.5;entryDx=0;entryDy=0;labelBackgroundColor=none;strokeColor=#182E3E;fontColor=default;" parent="1" source="v_WMkBbyVysh2Us5pl2Q-268" target="v_WMkBbyVysh2Us5pl2Q-288" edge="1">
          <mxGeometry width="100" height="100" relative="1" as="geometry">
            <mxPoint x="470" y="1277" as="sourcePoint" />
            <mxPoint x="570" y="1177" as="targetPoint" />
          </mxGeometry>
        </mxCell>
        <mxCell id="CCjtgsCmNxGvaccd5GqG-79" value="1, Satıcı1&lt;br&gt;2, Satıcı2&lt;br&gt;3, Satıcı3" style="text;html=1;strokeColor=none;fillColor=none;align=center;verticalAlign=middle;whiteSpace=wrap;rounded=0;labelBackgroundColor=none;fontColor=#1A1A1A;" parent="1" vertex="1">
          <mxGeometry x="50" y="830" width="200" height="50" as="geometry" />
        </mxCell>
        <mxCell id="CCjtgsCmNxGvaccd5GqG-80" value="1, 1 (Satıcı1) , 1(MNG)&lt;br&gt;2, 1 (Satıcı1) , 2(Yurtiçi)&lt;br&gt;3, 2 (Satıcı2), 2 (Yurtiçi)&amp;nbsp;" style="text;html=1;strokeColor=none;fillColor=none;align=center;verticalAlign=middle;whiteSpace=wrap;rounded=0;labelBackgroundColor=none;fontColor=#1A1A1A;" parent="1" vertex="1">
          <mxGeometry x="500" y="870" width="200" height="50" as="geometry" />
        </mxCell>
        <mxCell id="CCjtgsCmNxGvaccd5GqG-97" value="1, MNG&amp;nbsp;&lt;br&gt;2, Yurtiçi&lt;br&gt;3, Aras" style="text;html=1;strokeColor=none;fillColor=none;align=center;verticalAlign=middle;whiteSpace=wrap;rounded=0;labelBackgroundColor=none;fontColor=#1A1A1A;" parent="1" vertex="1">
          <mxGeometry x="720" y="845" width="240" height="50" as="geometry" />
        </mxCell>
        <mxCell id="CCjtgsCmNxGvaccd5GqG-99" value="Shippers" style="shape=table;startSize=30;container=1;collapsible=1;childLayout=tableLayout;fixedRows=1;rowLines=0;fontStyle=1;align=center;resizeLast=1;html=1;labelBackgroundColor=none;fillColor=#F5AB50;strokeColor=#909090;fontColor=#1A1A1A;" parent="1" vertex="1">
          <mxGeometry x="776" y="740" width="204" height="90" as="geometry" />
        </mxCell>
        <mxCell id="CCjtgsCmNxGvaccd5GqG-100" value="" style="shape=tableRow;horizontal=0;startSize=0;swimlaneHead=0;swimlaneBody=0;fillColor=none;collapsible=0;dropTarget=0;points=[[0,0.5],[1,0.5]];portConstraint=eastwest;top=0;left=0;right=0;bottom=1;labelBackgroundColor=none;strokeColor=#909090;fontColor=#1A1A1A;" parent="CCjtgsCmNxGvaccd5GqG-99" vertex="1">
          <mxGeometry y="30" width="204" height="30" as="geometry" />
        </mxCell>
        <mxCell id="CCjtgsCmNxGvaccd5GqG-101" value="PK" style="shape=partialRectangle;connectable=0;fillColor=none;top=0;left=0;bottom=0;right=0;fontStyle=1;overflow=hidden;whiteSpace=wrap;html=1;labelBackgroundColor=none;strokeColor=#909090;fontColor=#1A1A1A;" parent="CCjtgsCmNxGvaccd5GqG-100" vertex="1">
          <mxGeometry width="30" height="30" as="geometry">
            <mxRectangle width="30" height="30" as="alternateBounds" />
          </mxGeometry>
        </mxCell>
        <mxCell id="CCjtgsCmNxGvaccd5GqG-102" value="shipperID&amp;nbsp;int NOT NULL" style="shape=partialRectangle;connectable=0;fillColor=none;top=0;left=0;bottom=0;right=0;align=left;spacingLeft=6;fontStyle=5;overflow=hidden;whiteSpace=wrap;html=1;labelBackgroundColor=none;strokeColor=#909090;fontColor=#1A1A1A;" parent="CCjtgsCmNxGvaccd5GqG-100" vertex="1">
          <mxGeometry x="30" width="174" height="30" as="geometry">
            <mxRectangle width="174" height="30" as="alternateBounds" />
          </mxGeometry>
        </mxCell>
        <mxCell id="CCjtgsCmNxGvaccd5GqG-106" value="" style="shape=tableRow;horizontal=0;startSize=0;swimlaneHead=0;swimlaneBody=0;fillColor=none;collapsible=0;dropTarget=0;points=[[0,0.5],[1,0.5]];portConstraint=eastwest;top=0;left=0;right=0;bottom=0;labelBackgroundColor=none;strokeColor=#909090;fontColor=#1A1A1A;" parent="CCjtgsCmNxGvaccd5GqG-99" vertex="1">
          <mxGeometry y="60" width="204" height="30" as="geometry" />
        </mxCell>
        <mxCell id="CCjtgsCmNxGvaccd5GqG-107" value="" style="shape=partialRectangle;connectable=0;fillColor=none;top=0;left=0;bottom=0;right=0;editable=1;overflow=hidden;whiteSpace=wrap;html=1;labelBackgroundColor=none;strokeColor=#909090;fontColor=#1A1A1A;" parent="CCjtgsCmNxGvaccd5GqG-106" vertex="1">
          <mxGeometry width="30" height="30" as="geometry">
            <mxRectangle width="30" height="30" as="alternateBounds" />
          </mxGeometry>
        </mxCell>
        <mxCell id="CCjtgsCmNxGvaccd5GqG-108" value="name nvarchar(50) NOT NULL" style="shape=partialRectangle;connectable=0;fillColor=none;top=0;left=0;bottom=0;right=0;align=left;spacingLeft=6;overflow=hidden;whiteSpace=wrap;html=1;labelBackgroundColor=none;strokeColor=#909090;fontColor=#1A1A1A;" parent="CCjtgsCmNxGvaccd5GqG-106" vertex="1">
          <mxGeometry x="30" width="174" height="30" as="geometry">
            <mxRectangle width="174" height="30" as="alternateBounds" />
          </mxGeometry>
        </mxCell>
        <mxCell id="v_WMkBbyVysh2Us5pl2Q-256" value="" style="edgeStyle=entityRelationEdgeStyle;fontSize=12;html=1;endArrow=ERmandOne;startArrow=ERmandOne;rounded=0;exitX=1;exitY=0.5;exitDx=0;exitDy=0;entryX=0;entryY=0.5;entryDx=0;entryDy=0;labelBackgroundColor=none;strokeColor=#182E3E;fontColor=default;" parent="1" source="CCjtgsCmNxGvaccd5GqG-100" target="v_WMkBbyVysh2Us5pl2Q-247" edge="1">
          <mxGeometry width="100" height="100" relative="1" as="geometry">
            <mxPoint x="565" y="985" as="sourcePoint" />
            <mxPoint x="665" y="885" as="targetPoint" />
            <Array as="points">
              <mxPoint x="775" y="1005" />
            </Array>
          </mxGeometry>
        </mxCell>
        <mxCell id="CCjtgsCmNxGvaccd5GqG-115" value="" style="edgeStyle=entityRelationEdgeStyle;fontSize=12;html=1;endArrow=ERoneToMany;rounded=0;exitX=0;exitY=0.5;exitDx=0;exitDy=0;entryX=1;entryY=0.747;entryDx=0;entryDy=0;entryPerimeter=0;labelBackgroundColor=none;strokeColor=#182E3E;fontColor=default;" parent="1" source="CCjtgsCmNxGvaccd5GqG-100" target="CCjtgsCmNxGvaccd5GqG-94" edge="1">
          <mxGeometry width="100" height="100" relative="1" as="geometry">
            <mxPoint x="625" y="1215" as="sourcePoint" />
            <mxPoint x="725" y="1115" as="targetPoint" />
          </mxGeometry>
        </mxCell>
        <mxCell id="CCjtgsCmNxGvaccd5GqG-116" value="1, 1(MNG), adressvgmldmv , 23435&amp;nbsp;&lt;br&gt;2, 2(Yurtiçi),&amp;nbsp;&amp;nbsp;adressfdkfsllfss , 22111&lt;br&gt;3, 3(Aras),&amp;nbsp;&amp;nbsp;adressufkfglfgl , 1111111" style="text;html=1;strokeColor=none;fillColor=none;align=center;verticalAlign=middle;whiteSpace=wrap;rounded=0;labelBackgroundColor=none;fontColor=#1A1A1A;" parent="1" vertex="1">
          <mxGeometry x="1060" y="880" width="215" height="50" as="geometry" />
        </mxCell>
        <mxCell id="CCjtgsCmNxGvaccd5GqG-118" value="" style="edgeStyle=entityRelationEdgeStyle;fontSize=12;html=1;endArrow=ERoneToMany;rounded=0;entryX=0;entryY=0.5;entryDx=0;entryDy=0;labelBackgroundColor=none;strokeColor=#182E3E;fontColor=default;" parent="1" source="v_WMkBbyVysh2Us5pl2Q-218" target="v_WMkBbyVysh2Us5pl2Q-232" edge="1">
          <mxGeometry width="100" height="100" relative="1" as="geometry">
            <mxPoint x="685" y="820" as="sourcePoint" />
            <mxPoint x="170" y="1030" as="targetPoint" />
            <Array as="points">
              <mxPoint x="183" y="1065" />
            </Array>
          </mxGeometry>
        </mxCell>
        <mxCell id="CCjtgsCmNxGvaccd5GqG-120" value="" style="edgeStyle=entityRelationEdgeStyle;fontSize=12;html=1;endArrow=ERmandOne;startArrow=ERmandOne;rounded=0;exitX=0;exitY=0.5;exitDx=0;exitDy=0;entryX=0;entryY=0.5;entryDx=0;entryDy=0;strokeWidth=1;strokeColor=#182E3E;labelBackgroundColor=none;fontColor=default;" parent="1" source="CCjtgsCmNxGvaccd5GqG-94" target="CCjtgsCmNxGvaccd5GqG-141" edge="1">
          <mxGeometry width="100" height="100" relative="1" as="geometry">
            <mxPoint x="330" y="832.5" as="sourcePoint" />
            <mxPoint x="267" y="550" as="targetPoint" />
            <Array as="points">
              <mxPoint x="150" y="867.5" />
              <mxPoint x="310" y="690" />
              <mxPoint x="360" y="770" />
              <mxPoint x="330" y="840" />
              <mxPoint x="325" y="785" />
              <mxPoint x="198" y="1709.2" />
              <mxPoint x="115" y="655" />
              <mxPoint x="101" y="664.2" />
              <mxPoint x="75" y="654.2" />
              <mxPoint x="150" y="1264.2" />
              <mxPoint x="140" y="1264.2" />
              <mxPoint x="188" y="1649.2" />
              <mxPoint x="218" y="1779.2" />
            </Array>
          </mxGeometry>
        </mxCell>
        <mxCell id="CCjtgsCmNxGvaccd5GqG-140" value="" style="edgeStyle=entityRelationEdgeStyle;fontSize=12;html=1;endArrow=ERmandOne;startArrow=ERmandOne;rounded=0;entryX=0;entryY=0.5;entryDx=0;entryDy=0;exitX=0;exitY=0.5;exitDx=0;exitDy=0;labelBackgroundColor=none;strokeColor=#182E3E;fontColor=default;" parent="1" source="v_WMkBbyVysh2Us5pl2Q-218" target="CCjtgsCmNxGvaccd5GqG-137" edge="1">
          <mxGeometry width="100" height="100" relative="1" as="geometry">
            <mxPoint x="330" y="1570" as="sourcePoint" />
            <mxPoint x="430" y="1470" as="targetPoint" />
            <Array as="points">
              <mxPoint x="60" y="590" />
            </Array>
          </mxGeometry>
        </mxCell>
        <mxCell id="CCjtgsCmNxGvaccd5GqG-148" value="Sipariş(Orders)&lt;br&gt;Custormer, PaymentType, Address tabloları ile ilişkilendirilmiş olduğunu varsayıyoruz derste yaptığımız gibi&amp;nbsp; &amp;gt;&amp;gt;&amp;gt;&amp;gt;&amp;gt;&amp;gt;" style="text;html=1;strokeColor=none;fillColor=none;align=center;verticalAlign=middle;whiteSpace=wrap;rounded=0;labelBackgroundColor=none;fontColor=#1A1A1A;" parent="1" vertex="1">
          <mxGeometry x="40" y="320" width="260" height="100" as="geometry" />
        </mxCell>
        <mxCell id="CCjtgsCmNxGvaccd5GqG-149" value="&amp;lt;&amp;lt;&amp;lt;&amp;lt;&amp;lt;&amp;lt;&amp;lt; Burada da oluşturularn sipariş özelinde ürün tabloları ile ilişkileri gösterildiğini varsayıyoruz. &lt;br&gt;Bu tablodan başlayarak ilişkilendirme devam edebilir yine derste yaptığımız şekliyle....." style="text;html=1;strokeColor=none;fillColor=none;align=center;verticalAlign=middle;whiteSpace=wrap;rounded=0;labelBackgroundColor=none;fontColor=#1A1A1A;" parent="1" vertex="1">
          <mxGeometry x="920" y="300" width="200" height="95" as="geometry" />
        </mxCell>
        <mxCell id="CCjtgsCmNxGvaccd5GqG-150" value="1, 1 (Müşteri1) , 1(Cash), 1 (addres1) , 1.11.23, 1(Satıcı1), 1(MNG)&lt;br&gt;1, 1 (Müşteri1) , 1(Cash), 1 (addres1) , 1.11.23, 1(Satıcı1), 2(Yurtiçi)" style="text;html=1;strokeColor=none;fillColor=none;align=center;verticalAlign=middle;whiteSpace=wrap;rounded=0;labelBackgroundColor=none;fontColor=#1A1A1A;" parent="1" vertex="1">
          <mxGeometry x="396" y="535" width="380" height="50" as="geometry" />
        </mxCell>
        <mxCell id="CCjtgsCmNxGvaccd5GqG-151" value="&amp;lt;Vendor(Satıcı) ve Shippers(Kargo şirketi) ilişkisi&amp;gt;&lt;br&gt;&lt;br&gt;&amp;nbsp;Vendor(Satıcı) birden fazla kargo şirketi ile çalışabilir:" style="text;html=1;strokeColor=none;fillColor=none;align=center;verticalAlign=middle;whiteSpace=wrap;rounded=0;labelBackgroundColor=none;fontColor=#1A1A1A;" parent="1" vertex="1">
          <mxGeometry x="350" y="630" width="500" height="70" as="geometry" />
        </mxCell>
        <mxCell id="CCjtgsCmNxGvaccd5GqG-152" value="&amp;lt;&amp;lt;&amp;lt;&amp;lt; Müşteri bir satıcıdan aldığı bir siparişi satıcının anlaştığı herhangi bir kargo şirketi ile oluşturabilir." style="text;html=1;strokeColor=none;fillColor=none;align=center;verticalAlign=middle;whiteSpace=wrap;rounded=0;labelBackgroundColor=none;fontColor=#1A1A1A;" parent="1" vertex="1">
          <mxGeometry x="780" y="525" width="340" height="70" as="geometry" />
        </mxCell>
        <mxCell id="CCjtgsCmNxGvaccd5GqG-154" value="&amp;lt;&amp;lt;&amp;lt;&amp;lt;&amp;lt;&amp;lt;&amp;lt; Bu tabloya address tablosu da ilişkilendirilebilir derste yaptığımız gibi...." style="text;html=1;strokeColor=none;fillColor=none;align=center;verticalAlign=middle;whiteSpace=wrap;rounded=0;labelBackgroundColor=none;fontColor=#1A1A1A;" parent="1" vertex="1">
          <mxGeometry x="1310" y="740" width="182.5" height="95" as="geometry" />
        </mxCell>
        <mxCell id="CCjtgsCmNxGvaccd5GqG-155" value="Oluşturulacak bir sipariş ile siparişin satın alındığı satıcı(Vendor) &lt;br&gt;ve bu sipariş için seçilecek kargo şirketinin (Shipper) ilişkisini göstermek istedik.&lt;br style=&quot;border-color: var(--border-color);&quot;&gt;&lt;br style=&quot;border-color: var(--border-color);&quot;&gt;Orders - Vendors(Satıcı), Shippers(Kargo şirketi) ilişkisi" style="rounded=1;whiteSpace=wrap;html=1;labelBackgroundColor=none;fillColor=#F5AB50;strokeColor=#909090;fontColor=#1A1A1A;" parent="1" vertex="1">
          <mxGeometry x="75" y="80" width="600" height="90" as="geometry" />
        </mxCell>
        <mxCell id="uNhYUnHjxiBLD7LP3WGB-1" value="Bir kargo şirketine ait birden fazla adres olabilir, bir çok şubesi var sonuçta&lt;br&gt;şube no/id eklenerek tablo/lar geliştirilebilir." style="whiteSpace=wrap;html=1;fillColor=#F5AB50;strokeColor=#909090;labelBackgroundColor=none;fontColor=#1A1A1A;" parent="1" vertex="1">
          <mxGeometry x="1310" y="860" width="250" height="100" as="geometry" />
        </mxCell>
      </root>
    </mxGraphModel>
  </diagram>
</mxfile>
